<svg xmlns="http://www.w3.org/2000/svg" id="Layer_1" data-name="Layer 1" viewBox="0 0 180.84 49.14"><defs><style>.cls-1{fill:#fff;}</style></defs><path class="cls-1" d="M44.48,41.94V39.26l-2.14-2.14h-7.6L35.2,39v9.16L34.74,50h7.6l2.31-2.31V44.32L43.38,43ZM41,45.38v.82l-.24.47-.63.31H38.65V44.59h1.52l.63.32Zm-2.39-3.72V40h1.69l.46.23.24.47V41l-.24.46-.46.23Z" transform="translate(-2.08 -0.86)"></path><path class="cls-1" d="M55.39,38.66l.36-1.54H50l.36,1.54L47.84,48l-1,2h4.37L51,48.22l.28-1.14h2.84l.29,1.14L54.19,50h4.72l-1-2ZM52,44.15l.69-2.86.69,2.86Z" transform="translate(-2.08 -0.86)"></path><path class="cls-1" d="M69.44,44.53l1.82-1.82V39.43l-2.32-2.31H61.17L61.63,39v9.16L61.17,50h4.37l-.46-1.86V45.37H66l.09,0L67.59,50h4.33l-1.31-2.25Zm-4.36-4.48h1.69l.64.31.23.47v.82l-.23.47-.64.32H65.08Z" transform="translate(-2.08 -0.86)"></path><path class="cls-1" d="M89.26,46.85,91.8,43l-.55-.55H88.32L88,43.93l-.1.2-2.13-4.26h1.88l2.5.88-1.26-3.63h-5l-2.07,2.06,1.29,2.57-2.48,2.48v3.46L83,50h3.45l.85-.85.85.85H92l-2.41-2.41Zm-4.44.22-.46-.23-.23-.47V45.2l.26-.53.21-.21,1.22,2.44-.34.17Z" transform="translate(-2.08 -0.86)"></path><polygon class="cls-1" points="109.09 41.74 103.91 41.74 104.86 43.66 104.86 45.77 104.6 46.03 103.17 46.03 102.7 45.8 102.47 45.34 102.47 40.31 102.79 39.67 103.43 39.36 105.6 39.36 108.13 40.22 106.81 36.25 101.51 36.25 98.85 38.91 98.85 46.65 101.34 49.14 105.99 49.14 108.51 46.62 108.31 45.41 108.31 43.31 109.09 41.74"></polygon><path class="cls-1" d="M122.21,44.53,124,42.71V39.43l-2.31-2.31h-7.78l.47,1.86v9.16L113.94,50h4.38l-.47-1.86V45.37h.92l.09,0,1.5,4.59h4.33l-1.3-2.25Zm-4.36-4.48h1.69l.64.31.23.47v.82l-.23.47-.63.32h-1.7Z" transform="translate(-2.08 -0.86)"></path><polygon class="cls-1" points="129.88 36.25 125.5 36.25 125.97 38.12 125.97 47.27 125.5 49.14 129.88 49.14 129.42 47.28 129.42 38.12 129.88 36.25"></polygon><polygon class="cls-1" points="137.57 46.03 137.57 38.46 138.12 36.25 133.66 36.25 134.12 38.12 134.12 47.28 133.66 49.14 141.22 49.14 142.54 45.18 139.98 46.03 137.57 46.03"></polygon><polygon class="cls-1" points="150.71 46.03 148.3 46.03 148.3 38.46 148.85 36.25 144.38 36.25 144.85 38.12 144.85 47.28 144.38 49.14 151.95 49.14 153.27 45.18 150.71 46.03"></polygon><path class="cls-1" d="M20.8,2.24l-.34,0,.12.32a3.71,3.71,0,0,1,.18,1.87c-.28,2.73-.53,5.34-.76,7.87-.18,1.93-.36,3.91-.56,6-1.15-6.19-2.88-16-2.9-16.12l0-.17-3.74-.27,0,.19c0,.11-1.89,10.3-3,16.92q-.3-3.71-.54-7.21c-.2-2.8-.41-5.69-.68-8.7-.06-.73,0-1.1.13-1.2l.33-.34-.47,0L4.2,1,2.08.86l.37.4A2.33,2.33,0,0,1,3.1,2.71c.54,4.67,1.17,9.36,1.77,13.9.71,5.36,1.44,10.9,2,16.27l0,.21.22,0,4-.34h.17l0-.17c.91-5.57,2.13-12.29,3.07-17.3.38,2,.83,4.25,1.26,6.39.73,3.58,1.48,7.29,2,10.47l0,.2.2,0,3.87-.3h.18l0-.18c.59-5.4,1.41-10.82,2.21-16.06.55-3.6,1.11-7.33,1.59-11a4.57,4.57,0,0,1,.63-1.91l.21-.32-.38,0Z" transform="translate(-2.08 -0.86)"></path><path class="cls-1" d="M44.85,28.44V5.66a3,3,0,0,1,.39-1.8l.21-.32h-.39l-6-.24-.38,0,.18.33a4.88,4.88,0,0,1,.4,1.94v9l-4.43-.05V5.33a3.77,3.77,0,0,1,.43-2l.2-.31L35.1,3,29,2.75h-.35l.14.32a5,5,0,0,1,.45,2V29.11a5,5,0,0,1-.39,2.12l-.15.33.36,0,5.95-.29.39,0-.22-.32a3.14,3.14,0,0,1-.38-1.86V19.48l4.43-.05v9.14a3.83,3.83,0,0,1-.43,2.1L38.6,31,39,31l6.06-.24h.37l-.19-.31A3.86,3.86,0,0,1,44.85,28.44Z" transform="translate(-2.08 -0.86)"></path><path class="cls-1" d="M54.13,28.44V6.23a5.61,5.61,0,0,1,.38-1.92L54.77,4h-.42l-6-.19-.4,0,.21.35a4.3,4.3,0,0,1,.4,2V28.24a3.21,3.21,0,0,1-.49,2l-.2.34.39,0,6.14-.19h.43L54.6,30A2.25,2.25,0,0,1,54.13,28.44Z" transform="translate(-2.08 -0.86)"></path><path class="cls-1" d="M56.76,4.09h-.22v5L56.83,9A8.08,8.08,0,0,1,59,8.81l1.09,0,.92,0V26.91a5.88,5.88,0,0,1-.69,2.85l-.16.32h.36l6.57-.13h.42l-.25-.34A4.61,4.61,0,0,1,66.62,27v-18h1.11l1.7,0a5.81,5.81,0,0,1,1.84.25l.29.1V4.46h-.22C65.92,4.34,61,4.22,56.76,4.09Z" transform="translate(-2.08 -0.86)"></path><path class="cls-1" d="M73.87,4.52h-.5l.33.37A2.92,2.92,0,0,1,74.3,7V27.17a3.17,3.17,0,0,1-.61,2.25l-.27.36h.45c4-.06,8.87-.11,13.67-.13h.21V24.56l-.32.18a4.78,4.78,0,0,1-1.91.4l-4,0H79.84v-6h6.22V15H79.84V9.43l1.75,0,3.81,0a4.61,4.61,0,0,1,2,.34l.31.17V4.66h-.21C82.74,4.63,77.89,4.58,73.87,4.52Z" transform="translate(-2.08 -0.86)"></path><path class="cls-1" d="M108.1,4.57h-.37l.18.32A1.79,1.79,0,0,1,108,6.1c-.26,2-.52,3.83-.78,5.66s-.52,3.68-.79,5.71c-1-4.54-1.7-8.26-2.4-12.67l0-.18h-.19l-4,0h-.19l0,.18c-.77,4.77-1.46,8.53-2.53,13-.24-2.1-.49-4-.73-5.91s-.45-3.51-.68-5.4V6.45A2.27,2.27,0,0,1,95.86,5l.22-.33h-6.5L89.8,5a3,3,0,0,1,.57,1.57c0,.11,0,.23.06.36,1.37,8.47,3.94,22.38,4,22.52l0,.17h.18l3.92,0h.17l0-.17c1-4.25,2-8.49,3-12.75q1.43,6.39,2.86,12.79l0,.17h.17l4,.06H109l0-.18c0-.14,2.64-14.5,4-23.07a3.19,3.19,0,0,1,.53-1.63l.37-.37h-.52Z" transform="translate(-2.08 -0.86)"></path><path class="cls-1" d="M129.66,28.26v-21a3,3,0,0,0-1-2.18,3.41,3.41,0,0,0-2.4-1c-1.31,0-2.24.06-3.09.07-1.31,0-2.45,0-4.51.15s-3.2,1.16-3.21,3.16V27.54a3.86,3.86,0,0,1-.47,2l-.23.33h.4l3.37.07,2.26.05h.39l-.19-.33a3.08,3.08,0,0,1-.49-1.73v-5.6l4.08.06v5.84a2.22,2.22,0,0,1-.43,1.53l-.23.33h.4l3.39.1,2.57.07-.21-.34A2.8,2.8,0,0,1,129.66,28.26Zm-5-10.44h-4.08V9.45a.49.49,0,0,1,.41-.54l3.19-.05a.47.47,0,0,1,.48.53Z" transform="translate(-2.08 -0.86)"></path><path class="cls-1" d="M142.63,3.5c-3.64.19-7.4.38-10.81.5h-.21V9.19l.31-.14a5.74,5.74,0,0,1,2.27-.42c.37,0,.83,0,1.29-.07l1-.07V28.15a4.07,4.07,0,0,1-.43,2.1l-.16.3h.35l6,.22.39,0-.19-.34a4,4,0,0,1-.43-2.16V8.36l1,0,1.37,0a5.74,5.74,0,0,1,2.22.31l.29.11V3.29h-.23Z" transform="translate(-2.08 -0.86)"></path><path class="cls-1" d="M149.4,3.13l-.5,0,.37.35c.68.64.68,2.47.68,3.68v21a3.8,3.8,0,0,1-.82,2.62l-.27.34.43,0c5,.26,10,.55,13.86.79l.23,0V26.18l-.31.15a8.19,8.19,0,0,1-3.7.67l-3.89-.13V19.58l6.21.08v-4.8l-6.21.1V7.79l4.21-.14a7.74,7.74,0,0,1,3.38.45l.31.13V2.34h-.23C159.49,2.58,154.74,2.85,149.4,3.13Z" transform="translate(-2.08 -0.86)"></path><path class="cls-1" d="M182.68,33a5.51,5.51,0,0,1-.91-2.19c-.39-1.77-.85-3.87-1.25-5.72s-.78-3.6-1-4.39a5.07,5.07,0,0,0,2.69-4.39V6.24A4.71,4.71,0,0,0,180.73,3a5.52,5.52,0,0,0-4.23-1.43l-4.24.23c-1.66.09-3.37.17-5.79.31l-.5,0,.36.35a2.25,2.25,0,0,1,.75,2c0,4.23,0,8.4,0,12.57s0,8.34,0,12.57c0,1-.05,1.86-.66,2.31l-.48.36.84.05,6.11.36.39,0-.18-.34a4.49,4.49,0,0,1-.44-2.31V21.37l1.79,0c.41,1.66.83,3.74,1.23,5.75.22,1.13.45,2.26.68,3.33v.08c.16.72.37,1.7.12,2.07l-.2.31.37,0,5.84.4.44,0Zm-7.07-17.17c-1.36.08-1.73.09-3,.09V7.44l1.45-.08c.43,0,.87-.05,1.55-.07.45,0,.69,0,.83.15s.24.51.24,1.18c0,1.25,0,2,0,2.83s0,1.59,0,2.83C176.74,15.28,176.37,15.8,175.61,15.86Z" transform="translate(-2.08 -0.86)"></path></svg>